# xmcd
# 
# Track frame offsets:
#     150
#     8700
#     18248
#     32720
#     47067
#     60407
#     75175
#     93091
#     105456
#     116131
#     129400
#     143263
#     154640
#     168485
#     183266
#     195892
#     207284
#     219121
#     228983
#     245387
#     248188
#     272218
#     283962
#     295092
#     312744
#     321831
#     336278
# 
# Disc length: 4603
# 
# Revision: 1
# Processed by: cddbd v1.5.2PL0 Copyright (c) Steve Scherf et al.
# Submitted via: BonkEnc v1.0
# 
DISCID=6a11f91b
DTITLE=Rangers - To nejlepsi CD2
DYEAR=2004
DGENRE=Country
TTITLE0=Sing-sing
TTITLE1=Male baby
TTITLE2=Hrbitovni kviti
TTITLE3=Rakosi
TTITLE4=Pole s bavlnou
TTITLE5=Zluty ptak
TTITLE6=Otec a syn
TTITLE7=Kingston town
TTITLE8=Ja prochazel se jednou
TTITLE9=Rocky top
TTITLE10=Billy Spunt
TTITLE11=Mysli na to, ze prijdu
TTITLE12=500 mil
TTITLE13=Lily Langtry
TTITLE14=Prazdne nadrazi
TTITLE15=Pojdte sem
TTITLE16=Zeneni, zeneni
TTITLE17=Ave dies
TTITLE18=Posledni vecere
TTITLE19=Rangers v divadle E.F.Buriana (Live) - Uvod
TTITLE20=Tricentova opera
TTITLE21=Sest svicek
TTITLE22=Vim, vim
TTITLE23=Pole s bavlnou
TTITLE24=Pojd ven
TTITLE25=Marjanka
TTITLE26=Pojd dal
EXTD=YEAR: 2004
EXTT0=
EXTT1=
EXTT2=
EXTT3=
EXTT4=
EXTT5=
EXTT6=
EXTT7=
EXTT8=
EXTT9=
EXTT10=
EXTT11=
EXTT12=
EXTT13=
EXTT14=
EXTT15=
EXTT16=
EXTT17=
EXTT18=
EXTT19=
EXTT20=
EXTT21=
EXTT22=
EXTT23=
EXTT24=
EXTT25=
EXTT26=
PLAYORDER=
